<mxfile host="app.diagrams.net" modified="2023-03-24T04:20:49.661Z" agent="Mozilla/5.0 (Windows NT 10.0; Win64; x64) AppleWebKit/537.36 (KHTML, like Gecko) Chrome/111.0.0.0 Safari/537.36" etag="hhmrcsssEmQT7Ld8HSN-" version="21.1.0" type="device">
  <diagram name="Page-1" id="cvGN-EP-sp8OkfKToW5v">
    <mxGraphModel dx="1434" dy="707" grid="1" gridSize="10" guides="1" tooltips="1" connect="1" arrows="1" fold="1" page="1" pageScale="1" pageWidth="850" pageHeight="1100" math="1" shadow="0">
      <root>
        <mxCell id="0" />
        <mxCell id="1" parent="0" />
        <mxCell id="CCg8Dlz7WRHwLKoTHqhO-8" style="edgeStyle=orthogonalEdgeStyle;rounded=0;orthogonalLoop=1;jettySize=auto;html=1;exitX=1;exitY=0.5;exitDx=0;exitDy=0;entryX=0;entryY=0.5;entryDx=0;entryDy=0;strokeWidth=5;" edge="1" parent="1" source="CCg8Dlz7WRHwLKoTHqhO-1" target="CCg8Dlz7WRHwLKoTHqhO-6">
          <mxGeometry relative="1" as="geometry" />
        </mxCell>
        <mxCell id="CCg8Dlz7WRHwLKoTHqhO-9" style="edgeStyle=orthogonalEdgeStyle;rounded=0;orthogonalLoop=1;jettySize=auto;html=1;exitX=1;exitY=0.5;exitDx=0;exitDy=0;strokeWidth=5;" edge="1" parent="1" source="CCg8Dlz7WRHwLKoTHqhO-1" target="CCg8Dlz7WRHwLKoTHqhO-7">
          <mxGeometry relative="1" as="geometry" />
        </mxCell>
        <mxCell id="CCg8Dlz7WRHwLKoTHqhO-1" value="Neural Network" style="rounded=1;whiteSpace=wrap;html=1;fontSize=25;fillColor=#dae8fc;strokeColor=#6c8ebf;strokeWidth=5;" vertex="1" parent="1">
          <mxGeometry x="280" y="120" width="220" height="130" as="geometry" />
        </mxCell>
        <mxCell id="CCg8Dlz7WRHwLKoTHqhO-4" style="edgeStyle=orthogonalEdgeStyle;rounded=0;orthogonalLoop=1;jettySize=auto;html=1;exitX=1;exitY=0.5;exitDx=0;exitDy=0;entryX=0;entryY=0.5;entryDx=0;entryDy=0;strokeWidth=5;" edge="1" parent="1" source="CCg8Dlz7WRHwLKoTHqhO-2" target="CCg8Dlz7WRHwLKoTHqhO-1">
          <mxGeometry relative="1" as="geometry" />
        </mxCell>
        <mxCell id="CCg8Dlz7WRHwLKoTHqhO-2" value="`\theta`" style="ellipse;whiteSpace=wrap;html=1;aspect=fixed;fontSize=50;fillColor=#d5e8d4;strokeColor=#82b366;strokeWidth=5;" vertex="1" parent="1">
          <mxGeometry x="120" y="110" width="70" height="70" as="geometry" />
        </mxCell>
        <mxCell id="CCg8Dlz7WRHwLKoTHqhO-10" style="edgeStyle=orthogonalEdgeStyle;rounded=0;orthogonalLoop=1;jettySize=auto;html=1;exitX=1;exitY=0.5;exitDx=0;exitDy=0;entryX=0;entryY=0.5;entryDx=0;entryDy=0;strokeWidth=5;" edge="1" parent="1" source="CCg8Dlz7WRHwLKoTHqhO-3" target="CCg8Dlz7WRHwLKoTHqhO-1">
          <mxGeometry relative="1" as="geometry" />
        </mxCell>
        <mxCell id="CCg8Dlz7WRHwLKoTHqhO-3" value="`v`" style="ellipse;whiteSpace=wrap;html=1;aspect=fixed;fontSize=50;fillColor=#d5e8d4;strokeColor=#82b366;strokeWidth=5;" vertex="1" parent="1">
          <mxGeometry x="120" y="190" width="70" height="70" as="geometry" />
        </mxCell>
        <mxCell id="CCg8Dlz7WRHwLKoTHqhO-12" style="edgeStyle=orthogonalEdgeStyle;rounded=0;orthogonalLoop=1;jettySize=auto;html=1;exitX=1;exitY=0.5;exitDx=0;exitDy=0;entryX=0.75;entryY=0;entryDx=0;entryDy=0;strokeWidth=5;" edge="1" parent="1" source="CCg8Dlz7WRHwLKoTHqhO-6" target="CCg8Dlz7WRHwLKoTHqhO-11">
          <mxGeometry relative="1" as="geometry">
            <Array as="points">
              <mxPoint x="748" y="145" />
              <mxPoint x="748" y="240" />
            </Array>
          </mxGeometry>
        </mxCell>
        <mxCell id="CCg8Dlz7WRHwLKoTHqhO-6" value="`\frac{d\hat{\theta}}{dt}`" style="ellipse;whiteSpace=wrap;html=1;aspect=fixed;fontSize=25;fillColor=#e1d5e7;strokeColor=#9673a6;strokeWidth=5;" vertex="1" parent="1">
          <mxGeometry x="570" y="110" width="70" height="70" as="geometry" />
        </mxCell>
        <mxCell id="CCg8Dlz7WRHwLKoTHqhO-13" style="edgeStyle=orthogonalEdgeStyle;rounded=0;orthogonalLoop=1;jettySize=auto;html=1;exitX=1;exitY=0.5;exitDx=0;exitDy=0;entryX=0.75;entryY=0;entryDx=0;entryDy=0;strokeWidth=5;" edge="1" parent="1" source="CCg8Dlz7WRHwLKoTHqhO-7" target="CCg8Dlz7WRHwLKoTHqhO-11">
          <mxGeometry relative="1" as="geometry">
            <Array as="points">
              <mxPoint x="748" y="225" />
              <mxPoint x="748" y="280" />
            </Array>
          </mxGeometry>
        </mxCell>
        <mxCell id="CCg8Dlz7WRHwLKoTHqhO-7" value="`\frac{d\hat{v}}{dt}`" style="ellipse;whiteSpace=wrap;html=1;aspect=fixed;fontSize=25;fillColor=#e1d5e7;strokeColor=#9673a6;strokeWidth=5;" vertex="1" parent="1">
          <mxGeometry x="570" y="190" width="70" height="70" as="geometry" />
        </mxCell>
        <mxCell id="CCg8Dlz7WRHwLKoTHqhO-18" style="edgeStyle=orthogonalEdgeStyle;rounded=0;orthogonalLoop=1;jettySize=auto;html=1;exitX=0;exitY=0.5;exitDx=0;exitDy=0;entryX=0.5;entryY=1;entryDx=0;entryDy=0;strokeWidth=5;" edge="1" parent="1" source="CCg8Dlz7WRHwLKoTHqhO-11" target="CCg8Dlz7WRHwLKoTHqhO-1">
          <mxGeometry relative="1" as="geometry" />
        </mxCell>
        <mxCell id="CCg8Dlz7WRHwLKoTHqhO-11" value="&lt;font style=&quot;font-size: 25px;&quot;&gt;Mean squared error loss `\left( \frac{d\hat{&lt;br&gt;\theta}}{dt} - \frac{d&lt;br style=&quot;border-color: var(--border-color);&quot;&gt;\theta}{dt}\right)^2+\left( \frac{d\hat{&lt;br style=&quot;border-color: var(--border-color);&quot;&gt;v}}{dt} - \frac{d&lt;br style=&quot;border-color: var(--border-color);&quot;&gt;v}{dt}\right)^2&lt;br&gt;`&lt;/font&gt;" style="rounded=1;whiteSpace=wrap;html=1;fillColor=#fff2cc;strokeColor=#d6b656;strokeWidth=5;" vertex="1" parent="1">
          <mxGeometry x="410" y="370" width="450" height="110" as="geometry" />
        </mxCell>
        <mxCell id="CCg8Dlz7WRHwLKoTHqhO-15" value="Backpropagation, train weights" style="text;html=1;strokeColor=none;fillColor=none;align=center;verticalAlign=middle;whiteSpace=wrap;rounded=0;fontSize=25;strokeWidth=5;" vertex="1" parent="1">
          <mxGeometry x="200" y="310" width="170" height="30" as="geometry" />
        </mxCell>
        <mxCell id="CCg8Dlz7WRHwLKoTHqhO-21" value="Inputs" style="text;html=1;strokeColor=none;fillColor=none;align=center;verticalAlign=middle;whiteSpace=wrap;rounded=0;fontSize=25;strokeWidth=5;" vertex="1" parent="1">
          <mxGeometry x="70" y="60" width="170" height="30" as="geometry" />
        </mxCell>
        <mxCell id="CCg8Dlz7WRHwLKoTHqhO-22" value="Outputs" style="text;html=1;strokeColor=none;fillColor=none;align=center;verticalAlign=middle;whiteSpace=wrap;rounded=0;fontSize=25;strokeWidth=5;" vertex="1" parent="1">
          <mxGeometry x="520" y="60" width="170" height="30" as="geometry" />
        </mxCell>
        <mxCell id="CCg8Dlz7WRHwLKoTHqhO-39" style="edgeStyle=orthogonalEdgeStyle;rounded=0;orthogonalLoop=1;jettySize=auto;html=1;exitX=1;exitY=0.5;exitDx=0;exitDy=0;strokeWidth=5;" edge="1" parent="1" source="CCg8Dlz7WRHwLKoTHqhO-25" target="CCg8Dlz7WRHwLKoTHqhO-31">
          <mxGeometry relative="1" as="geometry" />
        </mxCell>
        <mxCell id="CCg8Dlz7WRHwLKoTHqhO-25" value="Neural Network" style="rounded=1;whiteSpace=wrap;html=1;fontSize=25;fillColor=#dae8fc;strokeColor=#6c8ebf;strokeWidth=5;" vertex="1" parent="1">
          <mxGeometry x="290" y="650" width="220" height="130" as="geometry" />
        </mxCell>
        <mxCell id="CCg8Dlz7WRHwLKoTHqhO-26" style="edgeStyle=orthogonalEdgeStyle;rounded=0;orthogonalLoop=1;jettySize=auto;html=1;exitX=1;exitY=0.5;exitDx=0;exitDy=0;entryX=0;entryY=0.5;entryDx=0;entryDy=0;strokeWidth=5;" edge="1" parent="1" source="CCg8Dlz7WRHwLKoTHqhO-27" target="CCg8Dlz7WRHwLKoTHqhO-25">
          <mxGeometry relative="1" as="geometry" />
        </mxCell>
        <mxCell id="CCg8Dlz7WRHwLKoTHqhO-27" value="`\theta`" style="ellipse;whiteSpace=wrap;html=1;aspect=fixed;fontSize=50;fillColor=#d5e8d4;strokeColor=#82b366;strokeWidth=5;" vertex="1" parent="1">
          <mxGeometry x="130" y="640" width="70" height="70" as="geometry" />
        </mxCell>
        <mxCell id="CCg8Dlz7WRHwLKoTHqhO-28" style="edgeStyle=orthogonalEdgeStyle;rounded=0;orthogonalLoop=1;jettySize=auto;html=1;exitX=1;exitY=0.5;exitDx=0;exitDy=0;entryX=0;entryY=0.5;entryDx=0;entryDy=0;strokeWidth=5;" edge="1" parent="1" source="CCg8Dlz7WRHwLKoTHqhO-29" target="CCg8Dlz7WRHwLKoTHqhO-25">
          <mxGeometry relative="1" as="geometry" />
        </mxCell>
        <mxCell id="CCg8Dlz7WRHwLKoTHqhO-29" value="`v`" style="ellipse;whiteSpace=wrap;html=1;aspect=fixed;fontSize=50;fillColor=#d5e8d4;strokeColor=#82b366;strokeWidth=5;" vertex="1" parent="1">
          <mxGeometry x="130" y="720" width="70" height="70" as="geometry" />
        </mxCell>
        <mxCell id="CCg8Dlz7WRHwLKoTHqhO-41" style="edgeStyle=orthogonalEdgeStyle;rounded=0;orthogonalLoop=1;jettySize=auto;html=1;exitX=1;exitY=0.5;exitDx=0;exitDy=0;entryX=0.75;entryY=0;entryDx=0;entryDy=0;strokeWidth=5;" edge="1" parent="1" source="CCg8Dlz7WRHwLKoTHqhO-31" target="CCg8Dlz7WRHwLKoTHqhO-35">
          <mxGeometry relative="1" as="geometry" />
        </mxCell>
        <mxCell id="CCg8Dlz7WRHwLKoTHqhO-31" value="`\hat{H}`" style="ellipse;whiteSpace=wrap;html=1;aspect=fixed;fontSize=25;fillColor=#e1d5e7;strokeColor=#9673a6;strokeWidth=5;" vertex="1" parent="1">
          <mxGeometry x="580" y="680" width="70" height="70" as="geometry" />
        </mxCell>
        <mxCell id="CCg8Dlz7WRHwLKoTHqhO-34" style="edgeStyle=orthogonalEdgeStyle;rounded=0;orthogonalLoop=1;jettySize=auto;html=1;exitX=0;exitY=0.5;exitDx=0;exitDy=0;entryX=0.5;entryY=1;entryDx=0;entryDy=0;strokeWidth=5;" edge="1" parent="1" source="CCg8Dlz7WRHwLKoTHqhO-35" target="CCg8Dlz7WRHwLKoTHqhO-25">
          <mxGeometry relative="1" as="geometry" />
        </mxCell>
        <mxCell id="CCg8Dlz7WRHwLKoTHqhO-35" value="&lt;font style=&quot;font-size: 25px;&quot;&gt;Mean squared error loss using Hamilton&#39;s equations `\left( \frac{d\hat{&lt;br&gt;H}}{dv} - \frac{d&lt;br style=&quot;border-color: var(--border-color);&quot;&gt;\theta}{dt}\right)^2+\left( \frac{d\hat{&lt;br style=&quot;border-color: var(--border-color);&quot;&gt;H}}{d\theta} - \frac{d&lt;br style=&quot;border-color: var(--border-color);&quot;&gt;v}{dt}\right)^2&lt;br&gt;`&lt;/font&gt;" style="rounded=1;whiteSpace=wrap;html=1;fillColor=#fff2cc;strokeColor=#d6b656;strokeWidth=5;" vertex="1" parent="1">
          <mxGeometry x="420" y="900" width="450" height="170" as="geometry" />
        </mxCell>
        <mxCell id="CCg8Dlz7WRHwLKoTHqhO-36" value="Backpropagation, train weights" style="text;html=1;strokeColor=none;fillColor=none;align=center;verticalAlign=middle;whiteSpace=wrap;rounded=0;fontSize=25;strokeWidth=5;" vertex="1" parent="1">
          <mxGeometry x="210" y="840" width="170" height="30" as="geometry" />
        </mxCell>
        <mxCell id="CCg8Dlz7WRHwLKoTHqhO-37" value="Inputs" style="text;html=1;strokeColor=none;fillColor=none;align=center;verticalAlign=middle;whiteSpace=wrap;rounded=0;fontSize=25;strokeWidth=5;" vertex="1" parent="1">
          <mxGeometry x="80" y="590" width="170" height="30" as="geometry" />
        </mxCell>
        <mxCell id="CCg8Dlz7WRHwLKoTHqhO-38" value="Outputs" style="text;html=1;strokeColor=none;fillColor=none;align=center;verticalAlign=middle;whiteSpace=wrap;rounded=0;fontSize=25;strokeWidth=5;" vertex="1" parent="1">
          <mxGeometry x="530" y="640" width="170" height="30" as="geometry" />
        </mxCell>
      </root>
    </mxGraphModel>
  </diagram>
</mxfile>
